<?xml version="1.0" encoding="UTF-8"?>
<svg width="64px" height="64px" viewBox="0 0 64 64" version="1.1" xmlns="http://www.w3.org/2000/svg" xmlns:xlink="http://www.w3.org/1999/xlink">
    <title>Artboard</title>
    <g id="Artboard" stroke="none" stroke-width="1" fill="none" fill-rule="evenodd">
        <g id="wrm-circular-blue" fill-rule="nonzero">
            <path d="M32,64.0008868 C14.3552231,64.0008868 0,49.6456636 0,32.0008866 C0,14.3561097 14.3552231,0 32,0 C49.644777,0 64,14.3561097 64,32.0008866 C64,49.6456636 49.644777,64.0008868 32,64.0008868" id="Outer" fill="#1E3755"></path>
            <path d="M1.34862843,32.0008866 C1.34862843,48.9017457 15.099141,62.6522582 32,62.6522582 C48.9008589,62.6522582 62.6513716,48.9017457 62.6513716,32.0008866 C62.6513716,15.1000277 48.9008589,1.3495151 32,1.3495151 C15.099141,1.3495151 1.34862843,15.1000277 1.34862843,32.0008866 Z" id="Inner" fill="#FFFFFF"></path>
            <path d="M32,0.674934885 C47.0140205,0.674934885 59.5595455,11.2387476 62.6132447,25.338609 L1.38675534,25.338609 C4.44045442,11.2387476 16.9859795,0.674934885 32,0.674934885 Z M11.9065891,12.2093876 C11.9065891,12.3184483 11.9234359,12.4097756 11.9571294,12.4851427 C12.0484566,12.7351843 12.2869715,13.5110224 12.6709005,14.8091106 C13.0548296,16.1080853 13.4520588,17.4593738 13.8617013,18.8629759 C14.2704572,20.266578 14.4921252,21.0264561 14.5258188,21.1434968 C14.5337988,21.1771903 14.5568523,21.2667443 14.5940926,21.4130451 C14.6313328,21.5593461 14.660593,21.6595401 14.6818731,21.7136271 C14.7031532,21.767714 14.7386201,21.857268 14.7882738,21.9831754 C14.8388141,22.1081961 14.8884677,22.1977501 14.939008,22.2518372 C14.9886617,22.3068108 15.0533888,22.3715379 15.1331893,22.4469051 C15.2121031,22.5213855 15.3060904,22.5736991 15.415151,22.6029593 C15.523325,22.6322194 15.6447991,22.6508395 15.7786866,22.6597063 L15.8788806,22.6597063 C16.0792685,22.6597063 16.2503962,22.6322194 16.3922638,22.5781325 C16.5341314,22.5240455 16.6467387,22.4398117 16.7309726,22.3272042 C16.8143198,22.2145969 16.8701801,22.1223829 16.8994403,22.0514493 C16.9287005,21.9805155 16.9686007,21.8741147 17.019141,21.7322471 C17.1947022,21.2064506 17.4633638,20.3224384 17.8268994,19.0819839 C18.190435,17.8415295 18.4972236,16.8874702 18.7481519,16.2189194 C18.7818454,16.1355722 18.8439124,16.0938986 18.9361264,16.0938986 C19.0363203,16.0938986 19.0992741,16.1355722 19.1241009,16.2189194 C19.2402549,16.6028484 19.4016293,17.1543586 19.6064505,17.872563 C19.8112718,18.5916542 20.002793,19.249565 20.1827875,19.8462954 C20.3618953,20.4439124 20.5525298,21.0344361 20.7529177,21.6196398 C20.7697645,21.6533333 20.803458,21.7508672 20.8531117,21.914015 C20.903652,22.0771626 20.9426656,22.1791299 20.9719258,22.2208036 C21.0011859,22.2624771 21.055273,22.3272042 21.1350735,22.4149847 C21.2139873,22.5027653 21.3186146,22.563059 21.4480687,22.5967525 C21.5775228,22.6295594 21.7388972,22.6508395 21.9304185,22.6597063 L21.9552452,22.6597063 C22.1644999,22.6428596 22.3125741,22.6242394 22.4003547,22.6029593 C22.4881353,22.5816791 22.5821224,22.5240455 22.6823164,22.4273981 C22.7825105,22.3316376 22.8747243,22.1871099 22.9580715,21.9955888 C23.292347,21.1851705 23.8731171,19.4765531 24.6994958,16.8706235 C25.5267609,14.2646938 25.956797,12.7945913 25.9904905,12.4603159 C26.032164,12.2758881 26.0525576,12.1180604 26.0525576,11.9841729 C26.0525576,11.8006318 25.9860571,11.6623109 25.8521697,11.570097 C25.7191688,11.4787697 25.480654,11.4326628 25.1383985,11.4326628 C25.1215517,11.4326628 25.104705,11.4344361 25.0878582,11.4388695 C25.0710115,11.4433029 25.0550513,11.4450762 25.0382046,11.4450762 C25.0133776,11.4450762 24.9734775,11.4433029 24.9193905,11.4388695 C24.8644168,11.4344361 24.8289499,11.4326628 24.8121031,11.4326628 C24.6950624,11.4326628 24.5948685,11.4370962 24.5115213,11.4450762 C24.4281741,11.4539429 24.3554669,11.461923 24.2925133,11.469903 C24.2295594,11.4787697 24.1736992,11.5018232 24.1231587,11.5390635 C24.0735052,11.5763037 24.0353783,11.6037905 24.0105514,11.6206373 C23.9857246,11.6374841 23.9546911,11.6853644 23.9165642,11.7642782 C23.8793239,11.8440787 23.8518372,11.9008257 23.8349902,11.9336326 C23.8181435,11.9673261 23.7888833,12.0444666 23.7472098,12.1659407 C23.7055362,12.2865281 23.6727292,12.376082 23.6470159,12.4346024 C23.2214132,13.5456027 22.669903,15.3375672 21.9933721,17.810496 C21.9685454,17.9106899 21.9055915,17.9603436 21.8053976,17.9603436 C21.6963369,17.9603436 21.6298364,17.9151233 21.6050097,17.8229094 C21.395755,17.2048989 21.1492603,16.3563536 20.8655251,15.2790468 C20.58179,14.2017401 20.3849488,13.4746689 20.2767747,13.0987199 C20.2182544,12.8823719 20.1721474,12.7316376 20.1393405,12.6482904 C20.105647,12.5649432 20.0444666,12.4479025 19.9575727,12.2971682 C19.8689055,12.1473206 19.7483181,12.0426933 19.5940371,11.9841729 C19.4388695,11.9256526 19.2491217,11.8963924 19.0239069,11.8963924 C19.0150402,11.8963924 19.0052868,11.8981657 18.9919867,11.9025991 C18.9795733,11.9070324 18.9689332,11.9088058 18.9609532,11.9088058 L18.8731726,11.9088058 C18.6807648,11.9088058 18.5185038,11.9291992 18.3846162,11.9717595 C18.2507287,12.0134331 18.1461014,12.0843669 18.071621,12.1845608 C17.9962538,12.2847548 17.9421668,12.3743087 17.9084733,12.4532225 C17.8747797,12.533023 17.8357662,12.6500637 17.7896592,12.8043447 C17.7435522,12.9595123 17.7080853,13.0694597 17.6832585,13.1368468 C17.5573511,13.4711222 17.4216902,13.8594846 17.2753893,14.3019341 C17.1299751,14.7443835 17.0067276,15.1327459 16.905647,15.4670213 C16.805453,15.8012968 16.6786589,16.2375395 16.524378,16.7766362 C16.3692103,17.3157329 16.2583763,17.7058687 16.1918759,17.9479302 C16.1670491,18.0481241 16.1040953,18.0986645 16.0039014,18.0986645 C15.9285342,18.0986645 15.8700139,18.0605376 15.8283403,17.9860571 C15.7361264,17.7856692 15.6323857,17.4682405 15.515345,17.0337711 C15.3983043,16.5993018 15.2209698,15.9245442 14.982455,15.0094985 C14.7448268,14.0953394 14.4788252,13.1536936 14.18711,12.1845608 C14.0780493,11.8423054 13.9867221,11.6224106 13.9113549,11.52665 C13.8359878,11.4308895 13.7065337,11.3821225 13.5229925,11.3821225 C13.0805431,11.3821225 12.7001607,11.4512829 12.3827321,11.5896038 C12.0653034,11.727038 11.9065891,11.9336326 11.9065891,12.2093876 Z M28.3335219,22.1707067 C28.8176448,22.1707067 29.0730064,21.8949516 29.0978333,21.3434414 C29.1732003,19.2721751 29.2441341,17.9066999 29.3106346,17.2461291 C29.352308,16.8373732 29.5030425,16.524378 29.7619506,16.3071433 C30.0208589,16.0899086 30.3214408,15.9808479 30.6645831,15.9808479 C31.0653589,15.9808479 31.4155944,16.1209421 31.7161762,16.4011305 C32.0176449,16.6804323 32.1674925,17.062588 32.1674925,17.5475977 C32.1674925,17.7648324 32.1657191,18.0982211 32.1612857,18.5495373 C32.1568523,19.0008534 32.1550789,19.3386755 32.1550789,19.564777 C32.1550789,20.3831754 32.1674925,20.9976393 32.1932058,21.4063952 C32.201186,21.5739762 32.2676864,21.7388972 32.3935939,21.9011581 C32.5186146,22.0643059 32.6897423,22.1503131 32.906977,22.1582931 C32.9566307,22.1919868 33.053278,22.2088336 33.1951455,22.2088336 C33.5959212,22.2088336 33.9027098,22.1476531 34.1163979,22.0270656 C34.3291992,21.9055915 34.4355999,21.6821501 34.4355999,21.3567415 C34.4355999,21.0889665 34.4400333,20.6881906 34.4480133,20.1535273 C34.4559934,19.618864 34.4604268,19.2225215 34.4604268,18.9627265 C34.4604268,18.0193073 34.4169797,17.2700693 34.3291992,16.7141258 C34.2414188,16.1581823 34.0392575,15.6465725 33.7218287,15.1792962 C33.4709006,14.8113273 33.1428318,14.5293655 32.7376226,14.3334109 C32.3324135,14.1374564 31.8961708,14.0390358 31.4288944,14.0390358 C30.5927625,14.0390358 29.8949515,14.3014907 29.3354613,14.828174 C29.2937878,14.8698476 29.2459075,14.8804877 29.1918205,14.8592075 C29.1368468,14.8388141 29.1102467,14.7989138 29.1102467,14.7403935 C29.1022665,14.4229648 29.0978333,13.9007149 29.0978333,13.1745303 C29.0978333,12.4474591 29.0889665,11.9509227 29.0730064,11.6831477 C29.0641396,11.4907398 28.9887726,11.3284788 28.8469049,11.1945913 C28.7050375,11.0607038 28.5383431,10.9942034 28.3459352,10.9942034 C28.3042615,10.9942034 28.2351011,10.9959767 28.1393405,11.0004101 C28.04358,11.0048435 27.9744196,11.0066168 27.9327459,11.0066168 C27.5062566,11.0066168 27.2163147,11.0731172 27.0620339,11.2070047 C26.9068661,11.3408922 26.8297257,11.5625603 26.8297257,11.8711222 C26.8297257,12.0963369 26.8279523,12.4332724 26.8235189,12.8801552 C26.8190857,13.327038 26.8173123,13.6630867 26.8173123,13.8883015 C26.8173123,14.1888834 26.8190857,14.6357662 26.8235189,15.2289499 C26.8279523,15.8221336 26.8297257,16.2654697 26.8297257,16.5571848 C26.8297257,16.7823996 26.8279523,17.1299751 26.8235189,17.5972513 C26.8190857,18.0654143 26.8173123,18.4121031 26.8173123,18.6373178 C26.8173123,18.9130729 26.8190857,19.3306955 26.8235189,19.8901857 C26.8279523,20.4496758 26.8297257,20.8717318 26.8297257,21.1563537 C26.8297257,21.3398948 26.8510058,21.4941756 26.8926795,21.6191965 C27.0177002,21.9951455 27.2934553,22.18312 27.719058,22.18312 C27.7695983,22.18312 27.8529455,22.1813466 27.9699862,22.1769132 C28.0870269,22.1733667 28.1703741,22.1707067 28.2209143,22.1707067 L28.3335219,22.1707067 Z M37.5556221,13.0676864 C37.8065503,12.8300582 37.9315712,12.5144029 37.9315712,12.1216071 C37.9315712,11.7128512 37.7941369,11.3989693 37.5183818,11.1817346 C37.2426267,10.9644999 36.9163314,10.8439124 36.5403823,10.818199 L36.4659019,10.818199 C36.1475865,10.818199 35.8514381,10.9565198 35.575683,11.2322749 C35.2999279,11.5080299 35.1624938,11.8006318 35.1624938,12.1091937 C35.1624938,12.4931228 35.2937213,12.8087781 35.5570628,13.0552729 C35.8204046,13.3017678 36.1564533,13.4250152 36.5660959,13.4250152 C36.9748518,13.4250152 37.3046938,13.3062012 37.5556221,13.0676864 Z M35.4506623,18.2236853 C35.4506623,18.4240732 35.4524357,18.7228817 35.4568689,19.1201108 C35.4613023,19.5164533 35.4630757,19.8152619 35.4630757,20.0156498 C35.4630757,20.1575173 35.4613023,20.366772 35.4568689,20.642527 C35.4524357,20.9173954 35.4506623,21.12665 35.4506623,21.2685177 C35.4506623,21.8785481 35.7592241,22.1835633 36.3781213,22.1835633 L36.3905347,22.1835633 C36.9163314,22.1746966 37.2718871,22.1064229 37.4554282,21.9769687 C37.6389693,21.8475146 37.7311831,21.5903796 37.7311831,21.2064506 L37.7311831,18.2360987 C37.7311831,16.8919036 37.7223165,15.884644 37.7063563,15.2169798 C37.6895096,14.932358 37.5662621,14.6796564 37.3366141,14.4588751 C37.1069659,14.237207 36.8409644,14.126373 36.5403823,14.126373 C36.2398005,14.126373 35.9826655,14.2389803 35.7698643,14.4650818 C35.5570628,14.6902965 35.4506623,14.9704849 35.4506623,15.3047603 L35.4506623,18.2236853 Z M39.2472154,15.9058354 C39.3305626,15.947509 39.3722361,16.4156719 39.3722361,17.3094375 C39.3722361,17.4513051 39.3704627,17.6720865 39.3660293,17.973555 C39.3615961,18.2741369 39.3598227,18.503785 39.3598227,18.6624993 C39.3598227,19.8905403 39.418343,20.6424384 39.5353839,20.9181934 C39.7357718,21.3854697 40.0345802,21.7348186 40.4309228,21.9644666 C40.8281518,22.1941148 41.2723747,22.3084955 41.7653644,22.3084955 C42.1829869,22.3084955 42.6006097,22.2207149 43.0191188,22.0451538 C43.1441397,21.9875201 43.2416736,21.9369799 43.3134941,21.8953062 C43.3835413,21.8536327 43.4447215,21.8181658 43.4952618,21.7889054 C43.5449155,21.7596453 43.5821558,21.7135384 43.6078693,21.6505846 C43.632696,21.5885175 43.6513162,21.5379773 43.6637296,21.500737 C43.6761429,21.4626101 43.6956499,21.3872431 43.7204766,21.2746355 C43.7453033,21.1620282 43.7701303,21.0644943 43.7958438,20.9802605 L43.7958438,20.9181934 C43.7958438,20.8179995 43.786977,20.7337656 43.7701303,20.6672652 C43.7541701,20.6007648 43.7408702,20.5564312 43.73289,20.5360377 C43.72491,20.5147576 43.6991965,20.481064 43.657523,20.4358437 C43.6158493,20.3897368 43.5910225,20.3622499 43.5821558,20.3542699 C43.4651151,20.2203824 43.2984207,20.153882 43.081186,20.153882 C43.0474923,20.153882 42.6848435,20.2203824 41.9914658,20.3542699 L41.9533389,20.3542699 C41.7281241,20.3542699 41.6031034,20.2035356 41.5782765,19.9029537 C41.5614297,19.6608922 41.5525631,19.2973566 41.5525631,18.8123469 L41.5525631,17.597606 C41.5525631,17.3803713 41.5507897,17.1400831 41.5463564,16.8767415 C41.541923,16.6133998 41.5401496,16.4529122 41.5401496,16.3943918 C41.5401496,16.161197 41.5543363,16.0202161 41.5835967,15.9749959 C41.6128568,15.9288889 41.6864506,15.9058354 41.8034913,15.9058354 C41.8699917,15.9058354 41.9790525,15.9076088 42.1289001,15.9120421 C42.2796343,15.9164755 42.3922416,15.9182488 42.4676088,15.9182488 C42.8515378,15.9182488 43.1538931,15.8597285 43.3755611,15.7426877 C43.5972291,15.625647 43.7116098,15.3959989 43.7204766,15.0537434 C43.7204766,15.0120698 43.7178166,14.9367027 43.7142698,14.8285287 C43.7098366,14.719468 43.7054033,14.6547409 43.7018565,14.6343475 C43.6974231,14.6130673 43.6894431,14.5696204 43.6761429,14.5022333 C43.6637296,14.4357329 43.6433362,14.3958327 43.6140759,14.3834192 C43.5848158,14.3710058 43.5511222,14.346179 43.5138819,14.3080521 C43.475755,14.2708119 43.4216682,14.2477584 43.3507344,14.2397783 C43.2798005,14.2309116 43.2008867,14.2184982 43.1122196,14.2016514 C43.0253256,14.1848047 42.9144917,14.1723913 42.780604,14.1644112 L42.7557773,14.1644112 C42.1794403,14.1475644 41.8407316,14.0908174 41.7405377,13.9950568 C41.6403435,13.8992962 41.5694099,13.5543807 41.5277362,12.961197 C41.5277362,12.9363702 41.5259628,12.8716431 41.5215296,12.7670158 C41.5170962,12.6623885 41.5108894,12.5772679 41.5029095,12.5098809 C41.4940427,12.4433805 41.4798559,12.3680133 41.4585758,12.2846661 C41.4372956,12.2013189 41.4044887,12.1365919 41.3583818,12.0904849 C41.312275,12.0443779 41.2519811,12.0177778 41.1766141,12.0089111 C41.06844,11.9592574 40.9221392,11.9335439 40.738598,11.9335439 C40.4123027,11.9335439 40.1658077,11.9796509 39.9991133,12.0718648 C39.9405931,12.1046717 39.886506,12.1472319 39.8359657,12.1968856 C39.786312,12.2474259 39.7437518,12.312153 39.7109448,12.3910668 C39.6772513,12.4708673 39.6497646,12.539141 39.629371,12.5976614 C39.6080909,12.6561818 39.5894707,12.7404156 39.572624,12.8485896 C39.5566638,12.9576503 39.5460239,13.0347908 39.5415905,13.0800111 C39.5371571,13.126118 39.5309505,13.2121252 39.5229703,13.337146 C39.5141037,13.4621668 39.5105569,13.5339873 39.5105569,13.5499474 C39.4679967,13.9844167 39.2888889,14.2264783 38.9714603,14.2770186 C38.7036852,14.3107121 38.4802438,14.4295262 38.301136,14.6343475 C38.1211417,14.8391688 38.0315877,15.0661568 38.0315877,15.3170851 C38.0315877,15.4341258 38.0608478,15.5671266 38.1193683,15.7178609 C38.1699086,15.8180549 38.3117762,15.8685952 38.5458576,15.8685952 C38.5875311,15.8685952 38.6558049,15.8668218 38.7524523,15.8623885 C38.8482128,15.8579551 38.9173733,15.8552951 38.9590468,15.8552951 C39.0840676,15.8552951 39.180715,15.8721419 39.2472154,15.9058354 Z M46.2764866,18.6750014 L46.3394402,18.6750014 C46.5141148,18.6750014 46.9680908,18.6998282 47.6987088,18.7503685 C48.4293267,18.8000222 49.0163038,18.8257357 49.4587531,18.8257357 C51.2799778,18.8257357 52.1905903,18.4790468 52.1905903,17.7856692 C52.1905903,17.7768024 52.1923635,17.756409 52.1967969,17.7227154 C52.2012303,17.6890219 52.2030037,17.6641951 52.2030037,17.6473483 C52.2030037,17.2713993 52.16133,16.9796841 52.0779828,16.7704295 C51.8855749,16.1940926 51.6727736,15.7676032 51.4386922,15.4918482 C50.6123137,14.5484289 49.5757938,14.0767193 48.3317928,14.0767193 C46.986711,14.0767193 45.9085175,14.4819285 45.098986,15.2914602 C44.2885675,16.1018786 43.8833583,17.066578 43.8833583,18.186445 C43.8833583,18.7042616 43.9915322,19.2389249 44.2087671,19.790435 C44.8019508,21.218864 45.9085175,22.0541093 47.5293544,22.2961706 C47.846783,22.3467109 48.1597784,22.3715379 48.469227,22.3715379 C49.4720532,22.3715379 50.3693656,22.1170629 51.1629371,21.6072264 C51.5388862,21.373145 51.7268607,21.0973899 51.7268607,20.7799612 C51.7268607,20.6549405 51.6976006,20.529033 51.6390801,20.4040122 C51.4723857,20.0280632 51.1966306,19.8400887 50.8127016,19.8400887 C50.6699474,19.8400887 50.5369465,19.8569354 50.4110391,19.890629 C50.2523249,19.9323026 50.0333168,20.0050097 49.7531283,20.109637 C49.4738266,20.2142644 49.2149183,20.2958382 48.9764035,20.3534719 C48.7387753,20.4128789 48.4940537,20.4412524 48.2440122,20.4412524 C47.3919201,20.4412524 46.7357828,20.0830369 46.2764866,19.3639457 C46.1674259,19.1724245 46.1133388,19.0048435 46.1133388,18.8629759 C46.1133388,18.7370685 46.1674259,18.6750014 46.2764866,18.6750014 Z M49.8852424,17.0213577 C49.8178554,17.0213577 49.5421003,17.0275644 49.0579773,17.0399778 C48.5738543,17.0523913 48.1686452,17.058598 47.8423498,17.058598 C47.040798,17.058598 46.5398283,17.0337711 46.3394402,16.9832308 C46.3642672,16.8750568 46.3846605,16.8076697 46.4015073,16.7828429 C46.5274148,16.5744749 46.7774563,16.3758604 47.1534054,16.1878859 C47.5293544,15.9999113 47.9221502,15.9059241 48.3317928,15.9059241 C49.0499973,15.9059241 49.6050541,16.2109393 49.9978499,16.8200831 C50.0146967,16.8289499 50.02711,16.8564367 50.03509,16.901657 C50.0439568,16.9477639 50.0519368,16.9752508 50.0608035,16.9832308 C50.0519368,16.9832308 50.02711,16.9894375 49.9854365,17.0018509 C49.9437628,17.0142644 49.9100693,17.0213577 49.8852424,17.0213577 Z" id="Combined-Shape" fill="#1E3755"></path>
            <path d="M21.2770296,40.8328513 L21.389637,40.8328513 C21.6237186,40.8328513 21.8116931,40.8514714 21.9544473,40.8895983 C22.0963148,40.9268384 22.2044889,41.0004322 22.2798559,41.1086064 C22.3552231,41.2176669 22.4031034,41.2992409 22.4243835,41.3533277 C22.4447769,41.4074148 22.4766972,41.5182489 22.5183707,41.6858299 C22.6105846,42.0201052 22.8109725,43.4955279 23.1204211,46.1120976 C23.4289832,48.7277805 23.6045443,50.3211305 23.6471044,50.8886008 C23.6471044,50.9143142 23.6488778,50.9480079 23.6533112,50.9896814 C23.6568578,51.0313551 23.659518,51.0606152 23.659518,51.077462 C23.659518,51.4871045 23.575284,51.7522194 23.4085896,51.8736935 C23.2410086,51.994281 22.9989471,52.0554615 22.6815185,52.0554615 L22.455417,52.0554615 C22.0289277,52.0554615 21.7389859,51.9694541 21.5838183,51.7983265 C21.4295373,51.6271988 21.3231365,51.2485897 21.2646163,50.663386 C21.222056,50.287437 21.1289554,49.3785979 20.9826545,47.9359824 C20.8363536,46.4942532 20.7547797,45.7148684 20.737933,45.5978277 C20.737933,45.556154 20.7210862,45.5224605 20.6873926,45.4976338 C20.6545858,45.4719202 20.6164589,45.4639403 20.5747853,45.4719202 C20.5331117,45.480787 20.5038515,45.5056138 20.4870047,45.5472875 C20.3947908,45.7396952 20.0605154,46.6050874 19.4841785,48.1434636 C18.9069548,49.6809531 18.5017456,50.655406 18.2676642,51.0641618 C18.1169299,51.3408035 17.9670823,51.5243448 17.816348,51.6165586 C17.6656138,51.707886 17.4776393,51.7539928 17.2524245,51.7539928 L17.2400111,51.7539928 C17.1061236,51.7539928 16.9828762,51.7398061 16.8693821,51.7105459 C16.7567748,51.6812856 16.6689942,51.6493655 16.6060405,51.6165586 C16.5439734,51.5828651 16.4792463,51.5270048 16.4118593,51.4472042 C16.3453588,51.3674038 16.3010252,51.3088834 16.2806318,51.2716431 C16.2593516,51.234403 16.2238848,51.1652425 16.1742311,51.0641618 C16.1236908,50.9639678 16.0944306,50.9019008 16.0855639,50.8770741 C15.9188695,50.5507787 15.7113882,50.1074426 15.46578,49.5470657 C15.2183985,48.9875755 15.0153505,48.5087725 14.8575229,48.1115433 C14.6979219,47.7143143 14.4957606,47.2071378 14.2492657,46.5882406 C14.0018842,45.9693434 13.8750901,45.6439346 13.8662233,45.6102411 C13.8502632,45.5685674 13.8121363,45.5472875 13.753616,45.5472875 C13.6950956,45.5472875 13.6614021,45.5730008 13.653422,45.6226545 C13.5780549,46.0987974 13.5088944,46.5740538 13.4459407,47.0457634 C13.3838737,47.5183596 13.3359934,47.9129288 13.3022998,48.2312442 C13.2686063,48.5486728 13.2269327,48.9795955 13.177279,49.5222389 C13.1267387,50.0657689 13.0806318,50.5170852 13.0389582,50.8770741 C12.9972846,51.2946966 12.898864,51.5872985 12.744583,51.7539928 C12.5894154,51.9215738 12.3322804,52.004921 11.9731782,52.004921 L11.8100305,52.004921 C11.467775,51.9800943 11.2203935,51.904727 11.0705459,51.7797064 C10.9198116,51.6537989 10.8444444,51.4241507 10.8444444,51.0898753 C10.8444444,50.9311609 10.8577445,50.7511666 10.8825713,50.5507787 C10.8905514,50.4833915 10.9871987,49.7146468 11.1707398,48.2436576 C11.354281,46.7726683 11.5360488,45.3593129 11.7160432,44.0053644 C11.8960377,42.6514158 12.005985,41.8649376 12.0485453,41.647703 C12.0813522,41.4224882 12.1567193,41.2513606 12.2737601,41.1334331 C12.3908008,41.017279 12.5140482,40.941912 12.644389,40.9082183 C12.7738432,40.8745248 12.9591577,40.849698 13.2021059,40.8328513 C13.4610141,40.8417181 13.6321419,40.8514714 13.7163757,40.8638848 C13.7997229,40.8771848 13.9043502,40.9161985 14.029371,40.9835855 C14.1552785,41.0500859 14.2528124,41.1529399 14.3246329,41.2903741 C14.3955667,41.428695 14.4762538,41.6273094 14.5684677,41.8862178 C15.4214464,44.3689001 16.2699917,46.4800665 17.1141036,48.2188306 C17.1389305,48.2605043 17.180604,48.2835579 17.2400111,48.2871045 C17.2976448,48.2915379 17.3357717,48.2684843 17.3526185,48.2188306 C18.7065669,45.0667111 19.6216126,42.8730841 20.0986423,41.6352896 L20.1234691,41.5475091 C20.1482959,41.4889886 20.1695761,41.4411083 20.1864228,41.4038682 C20.2032696,41.3657413 20.2298698,41.3152008 20.2679967,41.2531338 C20.3052369,41.1901802 20.3513439,41.1378665 20.4054309,41.0961928 C20.4595179,41.0545193 20.526905,41.0101856 20.6067055,40.9640787 C20.6856193,40.9188585 20.7822666,40.8851649 20.8948739,40.8638848 C21.0074813,40.8434912 21.1351622,40.8328513 21.2770296,40.8328513 Z M32.725298,47.6540205 C32.725298,47.8047549 32.7439181,48.1115433 32.782045,48.5761597 C32.8192851,49.0398891 32.8379053,49.4016514 32.8379053,49.6605598 C32.8379053,50.6882127 32.5701304,51.3319369 32.0354669,51.590845 C31.9184262,51.6413855 31.7845388,51.6662123 31.6346911,51.6662123 C31.4502632,51.6662123 31.2871156,51.6413855 31.145248,51.590845 C30.9865338,51.5411916 30.8553061,51.4383374 30.7506788,51.2840566 C30.6460517,51.1297756 30.5848712,50.9639678 30.568911,50.7884069 L30.3055695,50.977268 C29.711499,51.5367582 28.9799945,51.8169465 28.1110557,51.8169465 C27.8769743,51.8169465 27.5923524,51.7876863 27.2580771,51.7291661 C26.0291494,51.5030647 25.1353837,50.7928401 24.5750069,49.5976059 C24.2655583,48.945902 24.1112773,48.2977446 24.1112773,47.6540205 C24.1112773,46.7345414 24.4162925,45.9179163 25.0263232,45.2023719 C25.6363536,44.4877142 26.4512054,43.9548241 27.4717652,43.6037018 C27.7306733,43.5203546 27.9816017,43.4786811 28.223663,43.4786811 C28.8336935,43.4786811 29.5155445,43.7500028 30.2674426,44.2935329 C30.3011361,44.3183596 30.3534498,44.3671267 30.4243834,44.4380605 C30.4953172,44.5089943 30.5431975,44.5568746 30.568911,44.5817013 C30.5848712,44.2642727 30.6939319,44.0222111 30.8943198,43.8546302 C31.0947077,43.6879358 31.3287891,43.6037018 31.5965642,43.6037018 C31.8971461,43.6037018 32.1613744,43.7038958 32.386589,43.9051704 C32.6126904,44.1055583 32.725298,44.3813134 32.725298,44.7324355 L32.725298,47.6540205 Z M26.4308118,47.6912608 C26.4308118,48.3766584 26.6081464,48.9139817 26.9637018,49.3032309 C27.3183707,49.6915933 27.8060405,49.8857744 28.4249377,49.8857744 C29.1094486,49.8857744 29.638792,49.6685397 30.0103077,49.2340705 C30.3827099,48.799601 30.568911,48.2560709 30.568911,47.6034802 C30.568911,46.9269493 30.3658632,46.4002661 29.960654,46.0234304 C29.554558,45.6474814 29.0722085,45.4595069 28.5118315,45.4595069 C27.9434747,45.4595069 27.4549182,45.656348 27.0452756,46.0491438 C26.6356331,46.4419396 26.4308118,46.9890164 26.4308118,47.6912608 Z M34.3552675,45.3468994 C34.2878803,45.3132059 34.1921197,45.2963591 34.067099,45.2963591 C34.0245387,45.2963591 33.9562649,45.2990191 33.8596176,45.3034525 C33.763857,45.3078859 33.6946966,45.3096593 33.6530231,45.3096593 C33.4189415,45.3096593 33.277074,45.259119 33.2265338,45.1589248 C33.1680133,45.0081906 33.1387532,44.8751898 33.1387532,44.7572625 C33.1387532,44.5063341 33.228307,44.2793461 33.4083015,44.0745248 C33.5882958,43.8697035 33.8117373,43.7500028 34.0795124,43.7163093 C34.396941,43.6666557 34.5769355,43.4245941 34.618609,42.989238 C34.618609,42.973278 34.6221558,42.9023442 34.6310224,42.7764367 C34.6390026,42.6514158 34.6452092,42.5654087 34.6496425,42.5193018 C34.6540759,42.4731949 34.6647161,42.3960543 34.6815629,42.2869936 C34.6975228,42.1788196 34.7170296,42.0954725 34.7374231,42.036952 C34.7587033,41.9784318 34.7853034,41.9092713 34.8189969,41.8294707 C34.8526904,41.7505569 34.8943641,41.6858299 34.9449044,41.6352896 C34.9945581,41.585636 35.0486451,41.5430757 35.1071654,41.5102687 C35.2747466,41.418055 35.5212413,41.3719479 35.8475367,41.3719479 C36.0310778,41.3719479 36.1773789,41.3967748 36.2864396,41.4473151 C36.3618066,41.4561819 36.4221004,41.482782 36.4682073,41.5288889 C36.5143142,41.5749958 36.5471211,41.639723 36.5684013,41.7230702 C36.5887948,41.807304 36.6038682,41.8817844 36.6118481,41.9491716 C36.6207149,42.0156719 36.6269217,42.1016792 36.6313549,42.2063066 C36.6349017,42.3109337 36.6375617,42.3747741 36.6375617,42.4004877 C36.6792354,42.9936714 36.750169,43.3385869 36.8503629,43.4352342 C36.9505569,43.5309948 37.2892658,43.5868551 37.8656027,43.6037018 L37.8913163,43.6037018 C38.0243169,43.6125686 38.1360377,43.624982 38.2238182,43.6418287 C38.3115988,43.6586755 38.3905126,43.671089 38.4614464,43.679069 C38.5323802,43.6879358 38.5873539,43.7109891 38.624594,43.7482294 C38.6627209,43.7863563 38.6955278,43.8111831 38.7247882,43.8235967 C38.7540483,43.83601 38.7753284,43.8759103 38.7877418,43.9424108 C38.8001552,44.0097978 38.8081353,44.0532447 38.8125685,44.0745248 C38.8170019,44.0949184 38.8214353,44.1596454 38.8249821,44.2687061 C38.8294153,44.37688 38.8311887,44.4522473 38.8311887,44.4939207 C38.8232087,44.8370629 38.7079412,45.0667111 38.48716,45.1837518 C38.2646051,45.3007925 37.9622499,45.3593129 37.5774343,45.3593129 C37.5029537,45.3593129 37.3894598,45.3575395 37.2387253,45.3531062 C37.0888779,45.3486728 36.9798172,45.3468994 36.9133168,45.3468994 C36.7962761,45.3468994 36.7226823,45.3699529 36.6934219,45.4160598 C36.6641618,45.4621669 36.649975,45.6022611 36.649975,45.8363425 C36.649975,45.8939762 36.6517484,46.0553506 36.6561818,46.3186923 C36.6606152,46.5820338 36.6623884,46.822322 36.6623884,47.0395566 L36.6623884,48.2560709 C36.6623884,48.7410807 36.6703686,49.1046162 36.6872154,49.3466778 C36.7129289,49.6472596 36.8379496,49.797994 37.0631644,49.797994 L37.1012913,49.797994 C37.7946689,49.6641064 38.1590912,49.5976059 38.1918981,49.5976059 C38.4091328,49.5976059 38.5767137,49.6641064 38.6937544,49.797994 C38.7017346,49.8068606 38.7265613,49.8343475 38.7691216,49.8795678 C38.8107953,49.9256747 38.8356221,49.9593682 38.8444889,49.9797618 C38.8524688,50.0010419 38.8648822,50.0444888 38.8817289,50.1118758 C38.8985757,50.1783762 38.9065559,50.2626102 38.9065559,50.3628042 L38.9065559,50.4248712 C38.8817289,50.509105 38.8569022,50.606639 38.8311887,50.7201331 C38.8063619,50.8327404 38.7877418,50.9081076 38.7753284,50.9453477 C38.7629151,50.9834746 38.7442949,51.0331283 38.7185814,51.0960821 C38.6937544,51.1590357 38.6556275,51.2051428 38.6059741,51.234403 C38.5554336,51.2636631 38.4951399,51.29913 38.4242061,51.3408035 C38.3532725,51.3824772 38.2548517,51.4330174 38.1298311,51.4906511 C37.7113217,51.6670991 37.2936992,51.7539928 36.8751899,51.7539928 C36.3822001,51.7539928 35.9370907,51.6396121 35.5398615,51.4099641 C35.1426323,51.1794293 34.8447104,50.830967 34.643436,50.3628042 C34.5263951,50.0870491 34.4678748,49.3342644 34.4678748,48.1053367 C34.4678748,47.9466223 34.4696482,47.7169743 34.4740814,47.4155057 C34.4785148,47.1149239 34.4802882,46.8932558 34.4802882,46.7513882 C34.4802882,45.8567361 34.4386147,45.3885731 34.3552675,45.3468994 Z M40.699673,51.6162927 L40.5870657,51.6162927 C40.5365254,51.6162927 40.4531782,51.6180661 40.3361375,51.6224993 C40.2190966,51.6269327 40.1357495,51.628706 40.0852092,51.628706 C39.6587199,51.628706 39.3829648,51.4407315 39.2579441,51.0647825 C39.2162704,50.938875 39.1949903,50.7845942 39.1949903,50.6010529 C39.1949903,50.3164312 39.1932171,49.8943753 39.1887837,49.3339983 C39.1843503,48.7745081 39.1825769,48.355999 39.1825769,48.0802439 C39.1825769,47.8550291 39.1843503,47.5083404 39.1887837,47.0392908 C39.1932171,46.5720143 39.1949903,46.224439 39.1949903,45.9992242 C39.1949903,45.7066223 39.1932171,45.2632863 39.1887837,44.6701026 C39.1843503,44.0760321 39.1825769,43.6291495 39.1825769,43.3285674 C39.1825769,43.102466 39.1843503,42.7664172 39.1887837,42.3186478 C39.1932171,41.8717651 39.1949903,41.5348296 39.1949903,41.309615 C39.1949903,41.0001664 39.2721309,40.7784983 39.4272985,40.6446107 C39.5815795,40.5116098 39.8724079,40.4442228 40.2980106,40.4442228 C40.3396841,40.4442228 40.4088446,40.4424494 40.5054919,40.4380162 C40.6012525,40.4335828 40.6704129,40.4318094 40.7120864,40.4318094 C40.9044943,40.4318094 41.0720755,40.4983098 41.2139429,40.6321973 C41.3558105,40.7660847 41.4311775,40.9292325 41.4391577,41.1216404 C41.4560045,41.3885288 41.4648713,41.8859519 41.4648713,42.613023 C41.4648713,43.340981 41.4684179,43.8632309 41.4772846,44.1806594 C41.4772846,44.2391799 41.5038848,44.2790802 41.5588584,44.2994735 C41.6129455,44.3207537 41.6608258,44.3101137 41.7024993,44.26844 C42.2628762,43.7417568 42.9606873,43.478415 43.7968191,43.478415 C44.2649819,43.478415 44.7012248,43.5768358 45.1073206,43.7736769 C45.5125297,43.9696316 45.8405985,44.2515933 46.0915269,44.6195623 C46.4089555,45.0877251 46.6120033,45.6002216 46.6997839,46.1552784 C46.7875645,46.7121086 46.8310114,47.4622333 46.8310114,48.4065393 C46.8310114,48.6654476 46.826578,49.0626766 46.818598,49.59734 C46.8106178,50.1328901 46.8061847,50.5336658 46.8061847,50.801441 C46.8061847,51.1277363 46.6997839,51.3511776 46.4860959,51.471765 C46.2732946,51.5932391 45.9656194,51.6544196 45.5648434,51.6544196 C45.422976,51.6544196 45.3263286,51.6375728 45.2766749,51.6038793 C45.0585537,51.5958991 44.8874259,51.509892 44.7624051,51.3467444 C44.6373844,51.1835966 44.5699974,51.0186756 44.5620172,50.8519812 C44.5371904,50.4423387 44.5238903,49.8278748 44.5238903,49.0085897 C44.5238903,48.7824883 44.5256637,48.4437796 44.5300971,47.9924633 C44.5345304,47.5411471 44.5371904,47.2068717 44.5371904,46.9896371 C44.5371904,46.5046273 44.386456,46.1224717 44.0849876,45.8422832 C43.7844058,45.5620947 43.4332834,45.4220007 43.0316211,45.4220007 C42.6893655,45.4220007 42.3878969,45.5310612 42.1289886,45.748296 C41.8700804,45.9655307 41.719346,46.2794127 41.6776725,46.6881684 C41.6102855,47.3487394 41.5402383,48.7159879 41.4648713,50.7890274 C41.4391577,51.3405376 41.1846828,51.6162927 40.699673,51.6162927 Z M47.6840787,50.5631034 C47.4499973,50.296215 47.3329566,50.0195734 47.3329566,49.7358383 C47.3329566,49.4769299 47.4269438,49.2552619 47.6149183,49.070834 C47.8028928,48.8872928 48.018354,48.7950791 48.2613022,48.7950791 C48.5370573,48.7950791 48.7622722,48.9121198 48.9378333,49.1462012 C49.0797007,49.3465891 49.2862954,49.5327902 49.5585037,49.703918 C49.8298254,49.8759325 50.0993737,49.9610529 50.3671489,49.9610529 C50.7688112,49.9610529 51.08624,49.7482516 51.3203214,49.3217623 C51.3451484,49.2712221 51.3575617,49.2215684 51.3575617,49.1710281 C51.3575617,49.0797007 51.3283014,48.9919202 51.2697812,48.9076864 C51.2112607,48.8243392 51.1527405,48.7702521 51.09422,48.7454254 C50.9026989,48.6532114 50.54271,48.5113438 50.0160266,48.3189361 C49.4893433,48.1265282 49.0921141,47.9598338 48.8252258,47.8170796 C47.9554004,47.3489166 47.5209311,46.6972126 47.5209311,45.8610808 C47.5209311,45.8362538 47.5227043,45.7981269 47.5271377,45.7484732 C47.5315711,45.697933 47.5333445,45.6606927 47.5333445,45.6358659 C47.559058,45.3007038 47.7151122,44.9416015 48.0041675,44.5567859 C48.292336,44.1728569 48.5991244,43.9095151 48.9254197,43.7667609 C49.4849099,43.5415461 50.0036132,43.4289388 50.4797562,43.4289388 C51.1651538,43.4289388 51.7884844,43.6630202 52.3479746,44.1302966 C52.6157495,44.3395512 52.8250042,44.653433 52.9757384,45.0710558 C52.9837186,45.0879025 52.9881518,45.1171627 52.9881518,45.1588364 C52.9881518,45.2590303 52.9606651,45.3698642 52.906578,45.4913383 C52.8516043,45.6128124 52.7868773,45.6934996 52.7123969,45.7360599 C52.5527959,45.8690607 52.3772347,45.9364478 52.1857136,45.9364478 C51.9684788,45.9364478 51.6590302,45.7919201 51.2573678,45.5037517 C50.8565918,45.2155832 50.5551234,45.0710558 50.3547355,45.0710558 C50.1543474,45.0710558 49.9619397,45.1632695 49.7783986,45.3468109 C49.6524911,45.4886783 49.5895372,45.6394125 49.5895372,45.7981269 C49.5895372,45.9160544 49.6108174,45.9905348 49.6524911,46.0242283 C49.8697257,46.2662899 50.1375006,46.4675644 50.4549294,46.6262788 C50.6136436,46.709626 50.9709725,46.877207 51.5269161,47.1272485 C52.0828595,47.3781769 52.4987088,47.5909781 52.7744639,47.7674259 C53.1929731,48.051161 53.4013411,48.519324 53.4013411,49.1710281 C53.4013411,49.5638237 53.3162205,49.9442061 53.1450928,50.3121752 C52.9730784,50.6801441 52.7327902,50.9683125 52.4233416,51.1775672 C52.4153616,51.1775672 52.3648214,51.2023941 52.273494,51.2529344 C52.1812802,51.3025881 52.1227598,51.3327348 52.0979331,51.340715 C52.0722195,51.348695 52.0145859,51.3744085 51.9223719,51.416082 C51.8301579,51.4577557 51.7636575,51.4870158 51.7210972,51.5038626 C51.6794237,51.5207093 51.6129233,51.5428763 51.5207093,51.5721364 C51.4284956,51.6022833 51.3495816,51.6226767 51.2821945,51.63509 C51.2156941,51.6475034 51.1358937,51.659917 51.0445663,51.6723303 C50.9523526,51.6856305 50.8601386,51.6918371 50.7688112,51.6918371 C49.9743531,51.6581436 49.3412691,51.5659296 48.8686729,51.416082 C48.3960765,51.2653478 48.0015073,50.9807259 47.6840787,50.5631034 Z" id="Combined-Shape" fill="#1E3755"></path>
            <path d="M19.2103741,27.1433416 C19.7707509,27.1433416 20.3931948,27.1646217 21.0785924,27.2062954 C21.7054698,27.2479689 22.2844667,27.4483568 22.8155833,27.8083459 C23.3458132,28.167448 23.7412692,28.6985646 24.0001773,29.3999224 C24.1509117,29.8104516 24.2262787,30.2954613 24.2262787,30.8549515 C24.2262787,31.5651759 24.0835245,32.2053533 23.7997894,32.7737102 C23.5151677,33.342067 23.0851316,33.7135828 22.5087947,33.8891438 C22.2073261,33.9813577 22.0565919,34.1063784 22.0565919,34.2650928 C22.0565919,34.4326738 22.1993461,34.6880355 22.4830812,35.0302909 C22.6089886,35.2395455 22.8235633,35.5525409 23.1285785,35.9710503 C23.4335937,36.3886728 23.6765419,36.7504351 23.8565365,37.0554503 C24.0356442,37.3604655 24.1260848,37.6131671 24.1260848,37.8144418 C24.1260848,38.1903908 23.7829427,38.3783651 23.097545,38.3783651 L22.6089886,38.3783651 C22.2073261,38.3783651 21.9395512,38.3402382 21.8056637,38.2657578 C21.6726628,38.1903908 21.5219286,37.9935495 21.3543474,37.6761209 C21.2710003,37.4677529 20.9996786,36.9490496 20.5394957,36.1208977 C20.0793128,35.2936326 19.8079912,34.7793627 19.724644,34.5789748 C19.6909504,34.5124744 19.62445,34.443314 19.524256,34.3723801 C19.4231754,34.3014463 19.3318482,34.2650928 19.248501,34.2650928 L18.8973788,34.2650928 C18.5959102,34.2650928 18.4159158,34.3156331 18.3573954,34.415827 C18.298875,34.516021 18.2705015,34.7882295 18.2705015,35.230679 L18.2705015,37.3498256 C18.2616348,37.7009477 18.1889277,37.9456692 18.0506068,38.0839901 C17.9131726,38.2214243 17.5886506,38.2985647 17.0788141,38.3154115 L16.9910335,38.3154115 C16.3473095,38.3154115 16.0254475,38.0689165 16.0254475,37.5759268 L16.0254475,37.4500195 C16.0031034,36.9760044 15.9908141,36.2858099 15.9885797,35.3781431 L15.9886622,34.8121438 C15.9894378,34.5708682 15.9912473,34.2586329 15.994414,33.8767304 C15.998214,33.4184475 16.0000597,33.0578796 16.0005095,32.7961433 L16.0006207,32.6735163 C16.0006207,32.4057412 15.9988473,32.008512 15.994414,31.4818287 C15.9912473,31.1056264 15.9894378,30.797734 15.9886622,30.5581515 L15.9882073,30.3034413 L15.9882073,30.3034413 C15.9882073,29.5089832 16.0006207,28.7154116 16.0254475,27.9209532 C16.0334276,27.7959323 16.1194348,27.6496315 16.2825824,27.4820505 C16.4457301,27.3153562 16.5902577,27.2266888 16.7152785,27.2187088 C17.8182987,27.1681685 18.6499972,27.1433416 19.2103741,27.1433416 Z M20.1511333,29.111754 L19.3486949,29.111754 C19.248501,29.111754 19.1181602,29.1241673 18.9594458,29.1498809 C18.8007315,29.1747076 18.7005376,29.1933278 18.658864,29.2057411 C18.6171904,29.2181547 18.5568967,29.2624882 18.4770962,29.3378554 C18.3972957,29.4132226 18.3556221,29.4717428 18.3520754,29.5134165 C18.347642,29.55509 18.3325686,29.6535108 18.3077418,29.8077916 C18.2829149,29.9629592 18.2705015,30.0924135 18.2705015,30.1970408 L18.2705015,30.1970408 L18.2709413,31.6058849 C18.272133,31.8090109 18.2758216,31.9643559 18.2829149,32.0714658 C18.290895,32.1211195 18.3307952,32.1840731 18.401729,32.2594403 C18.4726628,32.3348076 18.5329565,32.3720477 18.5834968,32.3720477 C18.7510779,32.3809144 19.0099862,32.384461 19.3611083,32.384461 L19.3611083,32.384461 L20.3515212,32.384461 C20.8782045,32.384461 21.2692269,32.2363868 21.5237018,31.9393516 C21.7790636,31.6432031 21.9058576,31.2725741 21.9058576,30.8301248 C21.9058576,30.5375229 21.856204,30.2449211 21.75601,29.9523192 C21.6221226,29.6011971 21.4252813,29.3733223 21.1663729,29.268695 C20.9074647,29.1640676 20.5687559,29.111754 20.1511333,29.111754 L20.1511333,29.111754 Z M33.8436576,36.7984041 C33.609576,36.5306289 33.4925353,36.2548738 33.4925353,35.9711388 C33.4925353,35.7122306 33.5865227,35.4905626 33.7744972,35.3061347 C33.9624717,35.1225935 34.1779329,35.0303796 34.4208811,35.0303796 C34.6966362,35.0303796 34.9218511,35.1474203 35.097412,35.3815019 C35.2392796,35.5818898 35.4458743,35.7680909 35.7180826,35.9392187 C35.9894043,36.111233 36.2589526,36.1963536 36.5267276,36.1963536 C36.9283901,36.1963536 37.2458187,35.9835523 37.4799003,35.5570628 C37.5047271,35.5065226 37.5171404,35.4568689 37.5171404,35.4063286 C37.5171404,35.3150015 37.4878803,35.2272209 37.4293601,35.1429871 C37.3708396,35.0596399 37.3123192,35.0055528 37.2537989,34.9807259 C37.0622776,34.8885121 36.7022887,34.7466445 36.1756055,34.5542366 C35.6489222,34.3618289 35.251693,34.1942477 34.9848047,34.0523803 C34.1149793,33.5842173 33.6805098,32.9325131 33.6805098,32.0963813 C33.6805098,32.0715545 33.6822832,32.0334276 33.6867166,31.9837739 C33.69115,31.9332337 33.6929232,31.8959934 33.6929232,31.8711666 C33.7186367,31.5360045 33.8746911,31.1769022 34.1628596,30.7920864 C34.4519146,30.4081574 34.7587033,30.1448158 35.0849986,30.0020616 C35.6444888,29.7768468 36.1631921,29.6642395 36.6393351,29.6642395 C37.3247327,29.6642395 37.9480631,29.8983209 38.5075533,30.3655971 C38.7753284,30.5748517 38.9845831,30.8887337 39.1353173,31.3063563 C39.1432973,31.323203 39.1477307,31.3524634 39.1477307,31.3941368 C39.1477307,31.4943308 39.1202439,31.6051649 39.0661569,31.726639 C39.0111832,31.8481131 38.9464562,31.9288003 38.8719756,31.9713606 C38.7123746,32.1043614 38.5368136,32.1717485 38.3452923,32.1717485 C38.1280577,32.1717485 37.8186091,32.0272208 37.4169465,31.7390524 C37.0161707,31.4508839 36.7147021,31.3063563 36.5143142,31.3063563 C36.3139263,31.3063563 36.1215184,31.3985702 35.9379773,31.5821114 C35.8120698,31.723979 35.7491161,31.8747132 35.7491161,32.0334276 C35.7491161,32.1513549 35.7703963,32.2258355 35.8120698,32.259529 C36.0293046,32.5015904 36.2970795,32.7028651 36.6145081,32.8615795 C36.7732225,32.9449267 37.1305514,33.1125077 37.6864948,33.3625492 C38.2424384,33.6134774 38.6582877,33.8262788 38.9340426,34.0027266 C39.352552,34.2864617 39.56092,34.7546245 39.56092,35.4063286 C39.56092,35.7991244 39.4757994,36.1795068 39.3046717,36.5474757 C39.1326573,36.9154448 38.8923691,37.2036132 38.5829205,37.4128679 C38.5749405,37.4128679 38.5244001,37.4376946 38.4330729,37.4882349 C38.3408589,37.5378886 38.2823387,37.5680355 38.2575117,37.5760155 C38.2317982,37.5839957 38.173278,37.609709 38.0819508,37.6513827 C37.9897368,37.6930562 37.9232364,37.7223165 37.8806761,37.7391633 C37.8390026,37.75601 37.7725022,37.7781768 37.6802882,37.8074369 C37.5880742,37.8375838 37.5091605,37.8579774 37.4417734,37.8703907 C37.375273,37.8828041 37.2954724,37.8952175 37.2041452,37.907631 C37.1119313,37.920931 37.0197173,37.9271378 36.9283901,37.9271378 C36.133932,37.8934443 35.500848,37.8012303 35.0282516,37.6513827 C34.5556554,37.5006485 34.1610862,37.2160266 33.8436576,36.7984041 Z M42.1694209,34.3534054 C42.0603601,34.3534054 42.0062733,34.416359 42.0062733,34.5413799 C42.0062733,34.6832476 42.0603601,34.8508285 42.1694209,35.0432364 C42.6287171,35.7623276 43.2857412,36.1214297 44.1378333,36.1214297 C44.3887614,36.1214297 44.633483,36.0921696 44.8711112,36.0336493 C45.109626,35.9751289 45.3685343,35.8935551 45.6487226,35.7889277 C45.9289111,35.6843004 46.1488057,35.6115932 46.3075201,35.5699197 C46.432541,35.5362262 46.5664285,35.5193794 46.7082959,35.5193794 C47.0931117,35.5193794 47.3688668,35.707354 47.5364478,36.0833028 C47.5949682,36.2092103 47.6233418,36.3342312 47.6233418,36.4601386 C47.6233418,36.7775672 47.4353672,37.0533223 47.0594182,37.2874037 C46.2649598,37.7972402 45.3667609,38.0526018 44.3639347,38.0526018 C44.0544861,38.0526018 43.7406041,38.0268884 43.4231755,37.9772348 C41.801452,37.7342866 40.6939984,36.8990413 40.1008147,35.4697258 C39.8835799,34.917329 39.7745194,34.3826655 39.7745194,33.8639622 C39.7745194,32.7440953 40.1797285,31.7785094 40.9910335,30.9680908 C41.801452,30.1567859 42.8796455,29.7515765 44.2256138,29.7515765 C45.4713883,29.7515765 46.507908,30.2241729 47.3351733,31.1684789 C47.5692547,31.4442338 47.782056,31.8707231 47.9753505,32.4470601 C48.0586976,32.6563147 48.1003713,32.9489166 48.1003713,33.3248656 C48.1003713,33.3417124 48.0985979,33.3665393 48.0941646,33.4002328 C48.0897312,33.4339263 48.087958,33.4552065 48.087958,33.4631865 C48.087958,34.1565641 47.1764589,34.5041396 45.3543476,34.5041396 C44.9110115,34.5041396 44.3240344,34.4784261 43.5925298,34.4287726 C42.8610253,34.3782321 42.4079357,34.3534054 42.2323747,34.3534054 L42.1694209,34.3534054 Z M45.7808369,32.6979884 C45.8056636,32.6979884 45.8393571,32.6917816 45.8810308,32.6793683 C45.9227043,32.6669549 45.9475312,32.6607481 45.956398,32.6607481 C45.9475312,32.6527681 45.9395511,32.6252812 45.9306845,32.5791743 C45.9227043,32.5330674 45.9102909,32.5064671 45.8934442,32.4976005 C45.5006484,31.8875699 44.944705,31.5825547 44.2256138,31.5825547 C43.8159713,31.5825547 43.4231755,31.676542 43.0472264,31.8645165 C42.6712774,32.0524911 42.4203492,32.2511056 42.2944418,32.4594736 C42.2784816,32.485187 42.2572014,32.5516874 42.2323747,32.6607481 C42.4327626,32.7104018 42.9346191,32.7361153 43.7370575,32.7361153 C44.062466,32.7361153 44.468562,32.7299085 44.952685,32.7166086 C45.4376947,32.704195 45.7134498,32.6979884 45.7808369,32.6979884 Z M31.0460293,30.1289444 C32.2678636,30.8391688 33.0933555,32.1833639 33.0933555,33.7288336 C33.0933555,36.0129012 31.2907509,37.8642726 29.066977,37.8642726 C27.9063231,37.8642726 26.8635966,37.3570961 26.1285453,36.5493378 C26.5576946,36.7009588 27.0161042,36.786966 27.4949072,36.786966 C29.8233085,36.786966 31.7110336,34.8478137 31.7110336,32.4564588 C31.7110336,31.5990468 31.4645387,30.8019285 31.0460293,30.1289444 Z M25.7216514,33.1344085 C25.47959,32.2202494 25.7251982,31.1934831 26.4558159,30.4628651 C27.5366694,29.3820117 29.2656802,29.3589581 30.3172735,30.4105515 C30.8670103,30.9602883 31.1205984,31.6935662 31.0860183,32.4232973 C30.9547909,32.148429 30.7783431,31.8912941 30.5513549,31.6643059 C29.4501081,30.5630591 27.6395235,30.5869992 26.5081296,31.7183929 C26.1029204,32.1244889 25.8413521,32.6183652 25.7216514,33.1344085 Z M29.6466833,34.9566086 C29.1714269,35.7741203 28.2714548,36.3265171 27.2384816,36.3265171 C25.7098587,36.3265171 24.4711777,35.1206429 24.4711777,33.6328069 C24.4711777,32.8560821 24.810773,32.1582711 25.3507565,31.666168 C25.2496759,31.9534498 25.1920421,32.2602382 25.1920421,32.580327 C25.1920421,34.13821 26.4892436,35.401718 28.0888003,35.401718 C28.6633638,35.401718 29.1962539,35.2367968 29.6466833,34.9566086 Z M27.247703,34.7310391 C26.7431865,34.4375507 26.4027044,33.8824937 26.4027044,33.2449765 C26.4027044,32.3024439 27.1466223,31.5381325 28.0643281,31.5381325 C28.5440177,31.5381325 28.9740538,31.7473871 29.2772956,32.0807759 C29.1008479,32.0178221 28.9111,31.9823551 28.7133721,31.9823551 C27.7522195,31.9823551 26.9737213,32.7830203 26.9737213,33.7698864 C26.9737213,34.1245553 27.0748019,34.4535106 27.247703,34.7310391 Z M29.7750734,32.0007094 C30.2104295,32.253411 30.5048047,32.7331005 30.5048047,33.2837241 C30.5048047,34.097689 29.8628539,34.75826 29.070169,34.75826 C28.656093,34.75826 28.2845774,34.5773788 28.0221224,34.2892104 C28.1755169,34.3432974 28.3386644,34.3734441 28.5097922,34.3734441 C29.3397175,34.3734441 30.011815,33.6827265 30.011815,32.8306345 C30.011815,32.5247327 29.9240344,32.2401108 29.7750734,32.0007094 Z M28.0714215,33.9919977 C27.8169466,33.8439235 27.6449322,33.5646218 27.6449322,33.2427598 C27.6449322,32.7675034 28.0199944,32.381801 28.4828375,32.381801 C28.7248989,32.381801 28.9421335,32.4873152 29.0946411,32.6557827 C29.0050873,32.6238626 28.9102134,32.6061291 28.8100194,32.6061291 C28.3258965,32.6061291 27.9331007,33.009565 27.9331007,33.5078748 C27.9331007,33.6860959 27.9845275,33.8519037 28.0714215,33.9919977 Z M29.1850817,32.2769078 C29.4395566,32.424982 29.6115712,32.7042837 29.6115712,33.0261457 C29.6115712,33.5014021 29.2356222,33.8871045 28.7736659,33.8871045 C28.5316043,33.8871045 28.3143697,33.7815906 28.1618621,33.6131228 C28.2514159,33.6450429 28.3462898,33.6627765 28.4464838,33.6627765 C28.9306069,33.6627765 29.3234025,33.2593405 29.3234025,32.7610308 C29.3234025,32.5828096 29.2719757,32.417002 29.1850817,32.2769078 Z" id="Combined-Shape" fill="#1E3755"></path>
        </g>
    </g>
</svg>
